<mxfile host="app.diagrams.net" modified="2020-08-24T15:36:20.607Z" agent="5.0 (Macintosh; Intel Mac OS X 10_15_5) AppleWebKit/537.36 (KHTML, like Gecko) Chrome/84.0.4147.105 Safari/537.36" etag="s3ZRotdSkw_J_fRU3piI" version="13.5.4" type="github">
  <diagram id="iDdyZtwjIR0mEQECsBwV" name="Page-1">
    <mxGraphModel dx="978" dy="555" grid="1" gridSize="10" guides="1" tooltips="1" connect="1" arrows="1" fold="1" page="1" pageScale="1" pageWidth="850" pageHeight="1100" math="0" shadow="0">
      <root>
        <mxCell id="0" />
        <mxCell id="1" parent="0" />
        <mxCell id="46MHbnrksHeDlsty0wYF-2" value="Visualization&lt;br&gt;(Vanta or JS dashboards)" style="aspect=fixed;perimeter=ellipsePerimeter;html=1;align=center;shadow=0;dashed=0;fontColor=#4277BB;labelBackgroundColor=#ffffff;fontSize=12;spacingTop=3;image;image=img/lib/ibm/applications/visualization.svg;" vertex="1" parent="1">
          <mxGeometry x="280" y="90" width="60" height="60" as="geometry" />
        </mxCell>
        <mxCell id="46MHbnrksHeDlsty0wYF-7" value="publish data" style="edgeStyle=orthogonalEdgeStyle;rounded=0;orthogonalLoop=1;jettySize=auto;html=1;exitX=1;exitY=0.5;exitDx=0;exitDy=0;entryX=0;entryY=0.5;entryDx=0;entryDy=0;" edge="1" parent="1" source="46MHbnrksHeDlsty0wYF-3" target="46MHbnrksHeDlsty0wYF-5">
          <mxGeometry relative="1" as="geometry" />
        </mxCell>
        <mxCell id="46MHbnrksHeDlsty0wYF-3" value="Application" style="aspect=fixed;perimeter=ellipsePerimeter;html=1;align=center;shadow=0;dashed=0;fontColor=#4277BB;labelBackgroundColor=#ffffff;fontSize=12;spacingTop=3;image;image=img/lib/ibm/applications/application_logic.svg;" vertex="1" parent="1">
          <mxGeometry x="110" y="220" width="60" height="60" as="geometry" />
        </mxCell>
        <mxCell id="46MHbnrksHeDlsty0wYF-4" value="Event Store&lt;br&gt;(Redis or Vanta)" style="aspect=fixed;perimeter=ellipsePerimeter;html=1;align=center;shadow=0;dashed=0;fontColor=#4277BB;labelBackgroundColor=#ffffff;fontSize=12;spacingTop=3;image;image=img/lib/ibm/data/data_services.svg;" vertex="1" parent="1">
          <mxGeometry x="280" y="350" width="60" height="60" as="geometry" />
        </mxCell>
        <mxCell id="46MHbnrksHeDlsty0wYF-8" style="edgeStyle=orthogonalEdgeStyle;rounded=0;orthogonalLoop=1;jettySize=auto;html=1;exitX=0.5;exitY=1;exitDx=0;exitDy=0;entryX=0.5;entryY=0;entryDx=0;entryDy=0;" edge="1" parent="1" source="46MHbnrksHeDlsty0wYF-5" target="46MHbnrksHeDlsty0wYF-4">
          <mxGeometry relative="1" as="geometry" />
        </mxCell>
        <mxCell id="46MHbnrksHeDlsty0wYF-9" style="edgeStyle=orthogonalEdgeStyle;rounded=0;orthogonalLoop=1;jettySize=auto;html=1;exitX=0.5;exitY=0;exitDx=0;exitDy=0;" edge="1" parent="1" source="46MHbnrksHeDlsty0wYF-5" target="46MHbnrksHeDlsty0wYF-2">
          <mxGeometry relative="1" as="geometry" />
        </mxCell>
        <mxCell id="46MHbnrksHeDlsty0wYF-13" style="edgeStyle=orthogonalEdgeStyle;rounded=0;orthogonalLoop=1;jettySize=auto;html=1;exitX=1;exitY=0.5;exitDx=0;exitDy=0;entryX=0;entryY=0.5;entryDx=0;entryDy=0;" edge="1" parent="1" source="46MHbnrksHeDlsty0wYF-5" target="46MHbnrksHeDlsty0wYF-10">
          <mxGeometry relative="1" as="geometry" />
        </mxCell>
        <mxCell id="46MHbnrksHeDlsty0wYF-14" value="Request model&lt;br&gt;Analyze event" style="edgeLabel;html=1;align=center;verticalAlign=middle;resizable=0;points=[];" vertex="1" connectable="0" parent="46MHbnrksHeDlsty0wYF-13">
          <mxGeometry x="-0.3692" y="1" relative="1" as="geometry">
            <mxPoint x="19" y="1" as="offset" />
          </mxGeometry>
        </mxCell>
        <mxCell id="46MHbnrksHeDlsty0wYF-5" value="monitoring collector&lt;br&gt;(Aggregate Data - Workflows)" style="aspect=fixed;perimeter=ellipsePerimeter;html=1;align=center;shadow=0;dashed=0;fontColor=#4277BB;labelBackgroundColor=#ffffff;fontSize=12;spacingTop=3;image;image=img/lib/ibm/infrastructure/monitoring_logging.svg;" vertex="1" parent="1">
          <mxGeometry x="280" y="220" width="60" height="60" as="geometry" />
        </mxCell>
        <mxCell id="46MHbnrksHeDlsty0wYF-12" style="edgeStyle=orthogonalEdgeStyle;rounded=0;orthogonalLoop=1;jettySize=auto;html=1;entryX=0.5;entryY=0;entryDx=0;entryDy=0;" edge="1" parent="1" source="46MHbnrksHeDlsty0wYF-10" target="46MHbnrksHeDlsty0wYF-11">
          <mxGeometry relative="1" as="geometry" />
        </mxCell>
        <mxCell id="46MHbnrksHeDlsty0wYF-10" value="Python&lt;br&gt;Anomaly Detection" style="aspect=fixed;perimeter=ellipsePerimeter;html=1;align=center;shadow=0;dashed=0;fontColor=#4277BB;labelBackgroundColor=#ffffff;fontSize=12;spacingTop=3;image;image=img/lib/ibm/analytics/streaming_computing.svg;" vertex="1" parent="1">
          <mxGeometry x="470" y="220" width="60" height="60" as="geometry" />
        </mxCell>
        <mxCell id="46MHbnrksHeDlsty0wYF-11" value="Model Store&lt;br&gt;(Redis)" style="aspect=fixed;perimeter=ellipsePerimeter;html=1;align=center;shadow=0;dashed=0;fontColor=#4277BB;labelBackgroundColor=#ffffff;fontSize=12;spacingTop=3;image;image=img/lib/ibm/data/data_services.svg;" vertex="1" parent="1">
          <mxGeometry x="470" y="350" width="60" height="60" as="geometry" />
        </mxCell>
      </root>
    </mxGraphModel>
  </diagram>
</mxfile>
